<svg width="36" height="37" viewBox="0 0 36 37" fill="none" xmlns="http://www.w3.org/2000/svg">
<g clip-path="url(#clip0_14_467)">
<g clip-path="url(#clip1_14_467)">
<path d="M23.9653 12.9327C23.6009 12.9327 23.3732 12.7733 23.2821 12.4545C23.1911 11.9991 23.3505 11.7259 23.7603 11.6348H23.8286C24.2385 11.4982 24.5004 11.6576 24.6142 12.113C24.7281 12.5684 24.5801 12.8416 24.1702 12.9327H24.1019C24.0563 12.9327 24.0108 12.9327 23.9653 12.9327ZM28.5421 19.4906C28.2233 19.4906 27.9273 19.4223 27.6541 19.2856C27.1987 19.0124 26.9026 18.6253 26.766 18.1243C26.6294 17.6689 26.7774 17.3843 27.21 17.2705C27.6427 17.1566 27.9273 17.3274 28.0639 17.7828C28.1095 17.9194 28.1892 18.0219 28.303 18.0902C28.4169 18.1585 28.5421 18.1699 28.6787 18.1243C28.8154 18.0788 28.9178 17.9991 28.9861 17.8853C29.0544 17.7714 29.0658 17.6462 29.0203 17.5095C28.9292 17.0541 29.1 16.7695 29.5326 16.6557C29.9653 16.5418 30.2499 16.7126 30.3865 17.168C30.5231 17.6689 30.4548 18.1471 30.1816 18.6025C29.9083 19.0579 29.5212 19.3539 29.0203 19.4906C28.8837 19.4906 28.7243 19.4906 28.5421 19.4906ZM22.6673 21.13C22.303 21.13 21.9842 21.039 21.711 20.8568C21.2556 20.5835 20.9596 20.1965 20.8229 19.6955C20.7319 19.2856 20.9026 19.0124 21.3353 18.8758C21.7679 18.7391 22.0525 18.8985 22.1892 19.3539C22.1892 19.4906 22.2575 19.593 22.3941 19.6613C22.5307 19.7297 22.6673 19.7524 22.804 19.7297C22.9406 19.7069 23.0431 19.6272 23.1114 19.4906C23.1797 19.3539 23.1911 19.2173 23.1455 19.0807C23.0089 18.6708 23.1683 18.3976 23.6237 18.261C24.0791 18.1243 24.3524 18.2837 24.4434 18.7391C24.5801 19.2401 24.5231 19.7183 24.2727 20.1737C24.0222 20.6291 23.6465 20.9251 23.1455 21.0617C22.9634 21.1073 22.804 21.13 22.6673 21.13ZM26.766 25.5703C26.2651 25.5703 25.7869 25.4564 25.3315 25.2287C24.6939 24.8188 24.2613 24.2496 24.0336 23.5209C23.9425 23.0655 24.1133 22.7809 24.5459 22.667C24.9785 22.5532 25.2632 22.724 25.3998 23.1794C25.4909 23.5437 25.7072 23.8283 26.0487 24.0333C26.3903 24.2382 26.7546 24.2837 27.1417 24.1699C27.5288 24.056 27.8248 23.8283 28.0298 23.4868C28.2347 23.1452 28.2689 22.7923 28.1322 22.4279C28.0412 21.9725 28.2119 21.6879 28.6446 21.5741C29.0772 21.4602 29.3618 21.6082 29.4985 22.0181C29.6806 22.7923 29.5782 23.5095 29.1911 24.1699C28.804 24.8302 28.2461 25.2742 27.5174 25.502C27.2442 25.5475 26.9937 25.5703 26.766 25.5703ZM35.6465 18.4659C36.3296 21.0617 35.9994 23.5209 34.656 25.8435C33.3125 28.1661 31.3656 29.6689 28.8154 30.352C27.9501 30.5798 27.1076 30.6936 26.2878 30.6936C25.0127 30.6936 23.7831 30.4431 22.599 29.9422C20.9596 29.2591 19.5933 28.1889 18.5004 26.7316C16.5421 29.3729 13.9463 30.6936 10.7129 30.6936C8.02598 30.6936 5.73755 29.7486 3.84761 27.8587C1.95767 25.9687 1.0127 23.6803 1.0127 20.9934C1.0127 18.3065 1.95767 16.0181 3.84761 14.1281C5.73755 12.2382 8.02598 11.2932 10.7129 11.2932C13.9463 11.2932 16.5421 12.5911 18.5004 15.187C19.229 14.2306 20.0943 13.4336 21.0962 12.7961C21.4605 12.5684 21.7679 12.6481 22.0184 13.0352C22.2689 13.4223 22.2119 13.7297 21.8476 13.9574C20.8002 14.5949 19.9577 15.4374 19.3201 16.4849C20.0487 17.8966 20.4131 19.3995 20.4131 20.9934C20.4131 22.5873 20.0487 24.0902 19.3201 25.502C20.0487 26.686 21.0393 27.6196 22.2916 28.3027C23.544 28.9858 24.8761 29.3274 26.2878 29.3274C27.0165 29.3274 27.7451 29.2363 28.4738 29.0541C30.6598 28.4621 32.3334 27.1642 33.4947 25.1604C34.656 23.1566 34.9406 21.039 34.3486 18.8075C34.0298 17.6689 33.5061 16.6443 32.7774 15.7335C32.0487 14.8226 31.1607 14.1054 30.1133 13.5816C29.0658 13.0579 27.9501 12.7505 26.766 12.6594C26.3106 12.6594 26.1057 12.4317 26.1512 11.9763C26.1968 11.5209 26.4472 11.2932 26.9026 11.2932C28.952 11.4298 30.785 12.1585 32.4017 13.4792C34.0184 14.7999 35.1 16.4621 35.6465 18.4659ZM4.83812 26.8682C4.83812 26.8682 5.24799 27.278 6.06772 28.0978C6.88746 28.9175 8.43584 29.3274 10.7129 29.3274C12.9899 29.3274 14.9482 28.5076 16.5876 26.8682C18.2271 25.2287 19.0469 23.2705 19.0469 20.9934C19.0469 18.7164 18.2271 16.7581 16.5876 15.1187C14.9482 13.4792 12.9899 12.6594 10.7129 12.6594C8.43584 12.6594 6.47759 13.4792 4.83812 15.1187C3.19865 16.7581 2.37892 18.7164 2.37892 20.9934C2.37892 23.2705 3.19865 25.2287 4.83812 26.8682ZM9.55159 19.5589C9.55159 20.0143 9.32389 20.242 8.86848 20.242C8.41307 20.242 8.18537 20.0143 8.18537 19.5589C8.18537 19.1946 8.01459 19.0124 7.67304 19.0124C7.33148 19.0124 7.1607 19.1946 7.1607 19.5589C7.1607 20.0143 6.933 20.242 6.47759 20.242C6.02218 20.242 5.79448 20.0143 5.79448 19.5589C5.79448 19.0124 5.97664 18.557 6.34097 18.1927C6.70529 17.8283 7.14932 17.6462 7.67304 17.6462C8.19676 17.6462 8.64078 17.8283 9.0051 18.1927C9.36943 18.557 9.55159 19.0124 9.55159 19.5589ZM15.6313 19.5589C15.6313 20.0143 15.4036 20.242 14.9482 20.242C14.4928 20.242 14.2651 20.0143 14.2651 19.5589C14.2651 19.1946 14.0943 19.0124 13.7527 19.0124C13.4112 19.0124 13.2404 19.1946 13.2404 19.5589C13.2404 20.0143 13.0127 20.242 12.5573 20.242C12.1019 20.242 11.8742 20.0143 11.8742 19.5589C11.8742 19.1946 11.9653 18.8758 12.1474 18.6025C12.3296 18.3293 12.5573 18.1016 12.8305 17.9194C13.1038 17.7372 13.4226 17.6462 13.7869 17.6462C14.2878 17.6462 14.7205 17.8283 15.0848 18.1927C15.4491 18.557 15.6313 19.0124 15.6313 19.5589ZM12.6939 24.8188C12.6939 24.8188 12.5573 24.9555 12.284 25.2287C12.0108 25.502 11.4871 25.6386 10.7129 25.6386C9.93869 25.6386 9.27835 25.3653 8.73186 24.8188C8.18537 24.2724 7.91213 23.612 7.91213 22.8378C7.91213 22.3824 8.13983 22.1547 8.59524 22.1547C9.05065 22.1547 9.27835 22.3824 9.27835 22.8378C9.27835 23.2477 9.41497 23.5892 9.68822 23.8625C9.96146 24.1357 10.303 24.2724 10.7129 24.2724C11.1228 24.2724 11.4643 24.1357 11.7376 23.8625C12.0108 23.5892 12.1474 23.2477 12.1474 22.8378C12.1474 22.3824 12.3751 22.1547 12.8305 22.1547C13.2859 22.1547 13.5136 22.3824 13.5136 22.8378C13.5136 23.612 13.2404 24.2724 12.6939 24.8188ZM19.1835 5.14522C19.1835 5.60063 18.9558 5.82833 18.5004 5.82833C18.045 5.82833 17.8172 5.60063 17.8172 5.14522V1.86628C17.8172 1.41087 18.045 1.18317 18.5004 1.18317C18.9558 1.18317 19.1835 1.41087 19.1835 1.86628V5.14522ZM18.9785 8.49247C18.9785 8.49247 18.9444 8.52662 18.8761 8.59493C18.8078 8.66324 18.6825 8.6974 18.5004 8.6974C18.3182 8.6974 18.1588 8.62909 18.0222 8.49247C17.8856 8.35584 17.8172 8.19645 17.8172 8.01429C17.8172 7.83212 17.8856 7.67273 18.0222 7.53611C18.1588 7.39949 18.3182 7.33118 18.5004 7.33118C18.6825 7.33118 18.8419 7.39949 18.9785 7.53611C19.1152 7.67273 19.1835 7.83212 19.1835 8.01429C19.1835 8.19645 19.1152 8.35584 18.9785 8.49247ZM15.4947 7.33118C15.358 7.4678 15.1873 7.53611 14.9823 7.53611C14.7774 7.53611 14.6294 7.4678 14.5383 7.33118L12.2157 5.07691C11.8969 4.71258 11.8969 4.37102 12.2157 4.05224C12.5345 3.73345 12.8533 3.73345 13.1721 4.05224L15.4947 6.37482C15.8135 6.6936 15.8135 7.01239 15.4947 7.33118ZM22.5307 7.26286C22.4396 7.39949 22.2916 7.4678 22.0867 7.4678C21.8818 7.4678 21.711 7.39949 21.5744 7.26286C21.2556 6.94408 21.2556 6.62529 21.5744 6.30651L23.8286 4.05224C24.1474 3.73345 24.4662 3.74484 24.785 4.08639C25.1038 4.42795 25.1038 4.75812 24.785 5.07691L22.5307 7.26286Z" fill="url(#paint0_linear_14_467)"/>
</g>
</g>
<defs>
<linearGradient id="paint0_linear_14_467" x1="18.5023" y1="30.6936" x2="18.5023" y2="1.18317" gradientUnits="userSpaceOnUse">
<stop stop-color="#54B5F6"/>
<stop offset="1" stop-color="#0091F1"/>
</linearGradient>
<clipPath id="clip0_14_467">
<rect width="36" height="36" fill="white" transform="translate(0 0.5)"/>
</clipPath>
<clipPath id="clip1_14_467">
<rect width="36" height="36" fill="white" transform="translate(0 0.724609)"/>
</clipPath>
</defs>
</svg>
