<svg width="37" height="37" viewBox="0 0 37 37" fill="none" xmlns="http://www.w3.org/2000/svg">
<g clip-path="url(#clip0_14_461)">
<path d="M29 7.72461H26V6.22461C26 5.82678 25.842 5.44525 25.5607 5.16395C25.2794 4.88264 24.8979 4.72461 24.5 4.72461C24.1022 4.72461 23.7207 4.88264 23.4394 5.16395C23.1581 5.44525 23 5.82678 23 6.22461V7.72461H14V6.22461C14 5.82678 13.842 5.44525 13.5607 5.16395C13.2794 4.88264 12.8979 4.72461 12.5 4.72461C12.1022 4.72461 11.7207 4.88264 11.4394 5.16395C11.1581 5.44525 11 5.82678 11 6.22461V7.72461H8.00003C6.80656 7.72461 6.05713 7.71728 5.2748 8.49976C4.4926 9.2821 4.50003 10.0311 4.50003 11.2246V29.2246C4.50003 30.4181 4.46944 31.214 5.2748 31.9998C6.06303 32.7688 6.80656 32.7246 8.00003 32.7246H29C30.1935 32.7246 31.1989 32.9004 31.9996 31.9998C32.7313 31.1767 32.5 30.4181 32.5 29.2246V11.2246C32.5 10.0311 32.7082 9.31732 31.9996 8.49976C31.2072 7.58548 30.1935 7.72461 29 7.72461ZM30.5 29.2246C30.5 29.6224 30.342 30.004 30.0607 30.2853C29.7794 30.5666 29.3979 30.7246 29 30.7246H8.00003C7.60221 30.7246 7.22067 30.5666 6.93937 30.2853C6.65807 30.004 6.50003 29.6224 6.50003 29.2246V18.7246H30.5V29.2246ZM30.5 15.7246H6.50003V11.2246C6.50003 10.8268 6.65807 10.4453 6.93937 10.1639C7.22067 9.88264 7.60221 9.72461 8.00003 9.72461H11V11.2246C11 11.6224 11.1581 12.004 11.4394 12.2853C11.7207 12.5666 12.1022 12.7246 12.5 12.7246C12.8979 12.7246 13.2794 12.5666 13.5607 12.2853C13.842 12.004 14 11.6224 14 11.2246V9.72461H23V11.2246C23 11.6224 23.1581 12.004 23.4394 12.2853C23.7207 12.5666 24.1022 12.7246 24.5 12.7246C24.8979 12.7246 25.2794 12.5666 25.5607 12.2853C25.842 12.004 26 11.6224 26 11.2246V9.72461H29C29.3979 9.72461 29.7794 9.88264 30.0607 10.1639C30.342 10.4453 30.5 10.8268 30.5 11.2246V15.7246Z" fill="url(#paint0_linear_14_461)"/>
</g>
<defs>
<linearGradient id="paint0_linear_14_461" x1="18.5173" y1="4.72461" x2="18.5173" y2="32.7385" gradientUnits="userSpaceOnUse">
<stop stop-color="#54B5F6"/>
<stop offset="1" stop-color="#0091F1"/>
</linearGradient>
<clipPath id="clip0_14_461">
<rect width="36" height="36" fill="white" transform="translate(0.5 0.5)"/>
</clipPath>
</defs>
</svg>
