<svg width="36" height="37" viewBox="0 0 36 37" fill="none" xmlns="http://www.w3.org/2000/svg">
<path fill-rule="evenodd" clip-rule="evenodd" d="M21.157 22.5192L22.0019 21.0556C22.3627 20.43 22.4604 19.6867 22.2735 18.9891C22.0866 18.2915 21.6304 17.6966 21.0051 17.3352L21.0029 17.3341C20.3773 16.973 19.6339 16.8751 18.9363 17.062C18.2386 17.2489 17.6437 17.7054 17.2825 18.3309L15.5162 21.392C15.3182 21.7347 15.0335 22.0193 14.6907 22.2172C14.3479 22.415 13.9591 22.5192 13.5632 22.5192C12.4607 22.5192 12.7026 23.8287 12.7026 23.363V34.2541C12.7026 34.7199 13.0806 35.0979 13.5464 35.0979H25.1519C25.8683 35.0978 26.5614 34.8433 27.1077 34.3797C27.6539 33.9161 28.0177 33.2735 28.1342 32.5666L29.2109 26.0315C29.2818 25.5989 29.2579 25.1562 29.1407 24.7338C29.0235 24.3114 28.8158 23.9196 28.5321 23.5855C28.2484 23.2514 27.8954 22.983 27.4976 22.7989C27.0999 22.6147 26.6668 22.5193 26.2285 22.5192H21.157ZM14.3901 24.1179C14.929 24.0024 15.4377 23.7753 15.8834 23.4511C16.3291 23.1269 16.7018 22.7129 16.9776 22.2357L18.7439 19.1746C18.8118 19.0567 18.9023 18.9533 19.0103 18.8704C19.1182 18.7875 19.2414 18.7267 19.3729 18.6915C19.5043 18.6563 19.6414 18.6474 19.7763 18.6652C19.9113 18.683 20.0413 18.7273 20.1591 18.7955L20.1614 18.7966C20.3993 18.934 20.5729 19.1603 20.644 19.4257C20.7151 19.6911 20.6779 19.9739 20.5405 20.2119L19.4605 22.0827C19.3364 22.2979 19.271 22.542 19.2711 22.7904C19.2711 23.0388 19.3364 23.2829 19.4605 23.498C19.5846 23.7132 19.7632 23.892 19.9782 24.0164C20.1932 24.1408 20.4372 24.2064 20.6856 24.2067H26.2285C26.4221 24.2068 26.6134 24.2489 26.7891 24.3303C26.9647 24.4116 27.1207 24.5302 27.246 24.6777C27.3713 24.8253 27.463 24.9984 27.5148 25.1849C27.5666 25.3715 27.5772 25.5671 27.5459 25.7581L26.4692 32.2932C26.3624 32.9379 25.8055 33.4104 25.1519 33.4104H14.3901V24.1179ZM12.0186 23.363C12.0186 23.1392 11.9297 22.9246 11.7715 22.7664C11.6132 22.6081 11.3986 22.5192 11.1749 22.5192H8.27574C7.90277 22.5192 7.54509 22.6674 7.28137 22.9311C7.01764 23.1948 6.86949 23.5525 6.86949 23.9255V33.6916C6.86949 34.4679 7.49836 35.0979 8.27574 35.0979H11.1749C11.3986 35.0979 11.6132 35.009 11.7715 34.8507C11.9297 34.6925 12.0186 34.4779 12.0186 34.2541V23.363ZM8.55699 24.2067H10.3311V33.4104H8.55699V24.2067ZM15.7322 5.16498L13.4125 5.77361C13.1843 5.833 12.9747 5.94887 12.803 6.11054C12.6314 6.27221 12.5031 6.47448 12.4302 6.69873C12.3572 6.92297 12.3419 7.16196 12.3856 7.39369C12.4292 7.62542 12.5305 7.84243 12.6801 8.02473L14.2 9.87986L14.0616 12.275C14.0479 12.5103 14.0935 12.7452 14.1943 12.9582C14.2952 13.1712 14.448 13.3554 14.6387 13.4939C14.8294 13.6324 15.0518 13.7207 15.2856 13.7507C15.5193 13.7807 15.7569 13.7514 15.9764 13.6655L18.2106 12.7947L20.4449 13.6655C20.6643 13.751 20.9018 13.7801 21.1354 13.75C21.369 13.7199 21.5914 13.6316 21.782 13.4931C21.9726 13.3547 22.1254 13.1706 22.2263 12.9578C22.3272 12.745 22.3731 12.5102 22.3596 12.275L22.2212 9.87986L23.7411 8.02473C23.8904 7.84241 23.9915 7.62549 24.0351 7.39391C24.0786 7.16232 24.0633 6.9235 23.9905 6.69938C23.9177 6.47527 23.7898 6.27303 23.6184 6.11127C23.4471 5.94951 23.2378 5.8334 23.0099 5.77361L20.6901 5.16498L19.3941 3.14673C19.2668 2.9484 19.0917 2.78524 18.885 2.67223C18.6782 2.55922 18.4463 2.5 18.2106 2.5C17.975 2.5 17.7431 2.55922 17.5363 2.67223C17.3295 2.78524 17.1544 2.9484 17.0271 3.14673L15.7322 5.16498ZM18.2106 4.42698L19.3289 6.16961C19.519 6.46548 19.8137 6.68036 20.1557 6.76923L22.1571 7.29461L20.8465 8.89661C20.6227 9.16938 20.5099 9.5164 20.5304 9.86861L20.6496 11.9341L18.7214 11.1826C18.3929 11.0543 18.0283 11.0543 17.6999 11.1826L15.7716 11.9341L15.8909 9.86861C15.9114 9.5164 15.7985 9.16938 15.5747 8.89661L14.2641 7.29461L16.2655 6.76923C16.6075 6.68036 16.9022 6.46548 17.0924 6.16961L18.2106 4.42698ZM27.3355 10.7337L25.7447 11.1511C25.5168 11.2109 25.3075 11.327 25.1362 11.4888C24.9648 11.6505 24.8369 11.8528 24.7641 12.0769C24.6913 12.301 24.676 12.5398 24.7195 12.7714C24.7631 13.003 24.8642 13.2199 25.0135 13.4022L26.0552 14.6746L25.9596 16.316C25.9466 16.5511 25.9926 16.7857 26.0937 16.9984C26.1947 17.211 26.3474 17.395 26.5379 17.5334C26.7283 17.6719 26.9505 17.7603 27.1839 17.7908C27.4174 17.8212 27.6548 17.7926 27.8744 17.7076L29.4066 17.1102L30.9389 17.7076C31.1584 17.7932 31.396 17.8223 31.6297 17.7921C31.8634 17.762 32.0858 17.6735 32.2765 17.535C32.4671 17.3964 32.6199 17.2122 32.7207 16.9992C32.8216 16.7862 32.8673 16.5513 32.8536 16.316L32.7591 14.6746L33.8009 13.4022C33.9501 13.2198 34.0512 13.0028 34.0947 12.7712C34.1382 12.5395 34.1228 12.3007 34.0499 12.0765C33.977 11.8524 33.8489 11.6502 33.6774 11.4885C33.5059 11.3268 33.2965 11.2108 33.0685 11.1511L31.4789 10.7337L30.5901 9.34998C30.4628 9.15165 30.2877 8.98849 30.081 8.87548C29.8742 8.76247 29.6423 8.70325 29.4066 8.70325C29.171 8.70325 28.9391 8.76247 28.7323 8.87548C28.5255 8.98849 28.3504 9.15165 28.2231 9.34998L27.3355 10.7337ZM29.4066 10.6302L30.1176 11.7384C30.3077 12.0354 30.6036 12.2491 30.9445 12.3391L32.2169 12.6721L31.3832 13.6902C31.1605 13.9635 31.0481 14.3103 31.0682 14.6622L31.1436 15.9762L29.9174 15.4981C29.5889 15.3698 29.2243 15.3698 28.8959 15.4981L27.6696 15.9762L27.7461 14.6622C27.7664 14.3101 27.6535 13.9631 27.43 13.6902L26.5964 12.6721L27.8699 12.3391C28.2107 12.2491 28.5055 12.0354 28.6956 11.7384L29.4066 10.6302ZM4.64086 10.7337L3.05124 11.1511C2.82303 11.2105 2.61344 11.3264 2.44177 11.488C2.27011 11.6497 2.14189 11.852 2.06894 12.0762C1.99598 12.3005 1.98064 12.5395 2.02431 12.7712C2.06799 13.0029 2.16928 13.2199 2.31886 13.4022L3.36061 14.6746L3.26611 16.316C3.25306 16.5511 3.29915 16.7857 3.40016 16.9984C3.50118 17.211 3.6539 17.395 3.84436 17.5334C4.03482 17.6719 4.25695 17.7603 4.49043 17.7908C4.7239 17.8212 4.96128 17.7926 5.18086 17.7076L6.71311 17.1102L8.24536 17.7076C8.46491 17.7938 8.70266 17.8234 8.93664 17.7935C9.17062 17.7636 9.3933 17.6752 9.58411 17.5365C9.77492 17.3979 9.92772 17.2133 10.0284 17C10.1291 16.7867 10.1744 16.5514 10.1601 16.316L10.0645 14.6746L11.1062 13.4022C11.2555 13.2199 11.3566 13.003 11.4002 12.7714C11.4438 12.5398 11.4284 12.301 11.3556 12.0769C11.2828 11.8528 11.1549 11.6505 10.9835 11.4888C10.8122 11.327 10.6029 11.2109 10.375 11.1511L8.78424 10.7337L7.89661 9.34998C7.76933 9.15165 7.59425 8.98849 7.38745 8.87548C7.18065 8.76247 6.94877 8.70325 6.71311 8.70325C6.47745 8.70325 6.24557 8.76247 6.03877 8.87548C5.83197 8.98849 5.65689 9.15165 5.52961 9.34998L4.64086 10.7337ZM6.71311 10.6302L7.42411 11.7384C7.61424 12.0354 7.90899 12.2491 8.24986 12.3391L9.52336 12.6721L8.68974 13.6902C8.46617 13.9631 8.35334 14.3101 8.37361 14.6622L8.45011 15.9762L7.22386 15.4981C6.89544 15.3698 6.53078 15.3698 6.20236 15.4981L4.97611 15.9762L5.05149 14.6622C5.07163 14.3103 4.95925 13.9635 4.73649 13.6902L3.90286 12.6721L5.17524 12.3391C5.51611 12.2491 5.81199 12.0354 6.00211 11.7384L6.71311 10.6302Z" fill="url(#paint0_linear_14_454)"/>
<defs>
<linearGradient id="paint0_linear_14_454" x1="18.0594" y1="2.5" x2="18.0594" y2="35.0979" gradientUnits="userSpaceOnUse">
<stop stop-color="#54B5F6"/>
<stop offset="1" stop-color="#0091F1"/>
</linearGradient>
</defs>
</svg>
