<svg width="48" height="48" viewBox="0 0 48 48" fill="none" xmlns="http://www.w3.org/2000/svg">
<g clip-path="url(#clip0_14_978)">
<rect width="48" height="48" rx="4" fill="#FF3838"/>
<path d="M48 31L24 20V29L39 48H48V31Z" fill="#F20A0A"/>
<g clip-path="url(#clip1_14_978)">
<path d="M30.3404 32.8219H25.0676L24.5159 32.2702L25.9003 30.8858C25.975 30.8114 26.0297 30.7194 26.0594 30.6182C26.0891 30.5171 26.0927 30.4101 26.07 30.3071C26.0478 30.2041 26 30.1083 25.9309 30.0287C25.8619 29.9491 25.7738 29.8883 25.675 29.8517L18.4486 27.1623C18.195 27.0679 17.9183 27.1281 17.7269 27.3196C17.5354 27.5111 17.4751 27.7877 17.5696 28.0414L19.3487 32.8219H12.1036C11.396 32.8219 10.8203 32.2463 10.8203 31.5387V22.6907C10.8203 22.4641 10.6367 22.2805 10.4102 22.2805C10.1836 22.2805 10 22.4641 10 22.6907V31.5387C10 32.6986 10.9437 33.6423 12.1036 33.6423H19.654L20.2589 35.2676C20.2955 35.3665 20.3563 35.4546 20.436 35.5237C20.5156 35.5928 20.6114 35.6407 20.7144 35.6629C20.8174 35.6856 20.9244 35.6819 21.0255 35.6522C21.1267 35.6226 21.2187 35.5678 21.293 35.4931L22.6774 34.1088L24.0867 35.5181C24.1502 35.5815 24.2255 35.6319 24.3084 35.6661C24.3914 35.7004 24.4803 35.718 24.57 35.7178C24.7451 35.7178 24.9201 35.6512 25.0534 35.518L25.9252 34.6463C26.1916 34.3797 26.1915 33.9461 25.9251 33.6796H25.9251L25.8879 33.6424H30.3403C30.5669 33.6424 30.7505 33.4588 30.7505 33.2322C30.7505 33.0057 30.5669 32.8219 30.3404 32.8219ZM24.5701 34.8411L22.9675 33.2385C22.9294 33.2004 22.8842 33.1702 22.8344 33.1495C22.7847 33.1289 22.7313 33.1184 22.6774 33.1184C22.6236 33.1184 22.5702 33.1289 22.5204 33.1495C22.4707 33.1702 22.4254 33.2004 22.3874 33.2385L20.9237 34.7022L18.4425 28.0353L25.1093 30.5166L23.6457 31.9802C23.6076 32.0183 23.5774 32.0635 23.5568 32.1133C23.5362 32.1631 23.5256 32.2164 23.5256 32.2703C23.5256 32.3241 23.5362 32.3775 23.5568 32.4272C23.5774 32.477 23.6076 32.5222 23.6457 32.5603L25.2483 34.1628L24.5701 34.8411Z" fill="white"/>
<path d="M35.8964 12.2822H34.4624C34.2358 12.2822 34.0522 12.4658 34.0522 12.6924C34.0522 12.919 34.2358 13.1025 34.4624 13.1025H35.8964C36.604 13.1025 37.1797 13.6782 37.1797 14.3858V16.9557H10.8203V14.3858C10.8203 13.6782 11.396 13.1025 12.1036 13.1025H32.5654C32.792 13.1025 32.9756 12.919 32.9756 12.6924C32.9756 12.4658 32.792 12.2822 32.5654 12.2822H12.1036C10.9437 12.2822 10 13.2259 10 14.3858V20.8451C10 21.0717 10.1836 21.2552 10.4102 21.2552C10.6367 21.2552 10.8203 21.0717 10.8203 20.8451V17.776H37.1797V31.5388C37.1797 32.2464 36.604 32.8221 35.8964 32.8221H32.3057C32.0791 32.8221 31.8955 33.0057 31.8955 33.2322C31.8955 33.4588 32.0791 33.6424 32.3057 33.6424H35.8964C37.0563 33.6424 38 32.6987 38 31.5388V14.3858C38 13.2259 37.0563 12.2822 35.8964 12.2822Z" fill="white"/>
<path d="M12.7179 15.029C12.7179 15.4486 13.058 15.7888 13.4776 15.7888C13.8971 15.7888 14.2373 15.4486 14.2373 15.029C14.2373 14.6094 13.8971 14.2693 13.4776 14.2693C13.058 14.2693 12.7179 14.6094 12.7179 15.029ZM15.055 15.029C15.055 15.4486 15.3951 15.7888 15.8147 15.7888C16.2343 15.7888 16.5744 15.4486 16.5744 15.029C16.5744 14.6094 16.2343 14.2693 15.8147 14.2693C15.3951 14.2693 15.055 14.6094 15.055 15.029ZM17.3921 15.029C17.3921 15.4486 17.7323 15.7888 18.1518 15.7888C18.5714 15.7888 18.9116 15.4486 18.9116 15.029C18.9116 14.6094 18.5714 14.2693 18.1518 14.2693C17.7323 14.2693 17.3921 14.6094 17.3921 15.029ZM15.0208 26.8059H15.0231C15.1965 26.8059 15.3512 26.6969 15.4094 26.5335L16.4254 23.6825L17.3962 26.5283C17.4238 26.609 17.4758 26.6791 17.5451 26.7289C17.6143 26.7786 17.6974 26.8056 17.7827 26.806H17.7844C17.8694 26.806 17.9523 26.7795 18.0217 26.7304C18.091 26.6812 18.1434 26.6117 18.1715 26.5314L19.5487 22.6024C19.5847 22.4997 19.5784 22.3869 19.5313 22.2889C19.4841 22.1909 19.3999 22.1156 19.2973 22.0796C19.1946 22.0436 19.0818 22.0499 18.9838 22.0971C18.8858 22.1442 18.8105 22.2284 18.7745 22.331L17.7896 25.1408L16.8221 22.3045C16.7123 21.944 16.1619 21.9407 16.0475 22.2992L15.0301 25.1542L14.0624 22.3379C14.0449 22.287 14.0175 22.24 13.9819 22.1996C13.9462 22.1592 13.9029 22.1263 13.8545 22.1026C13.8061 22.079 13.7535 22.0651 13.6998 22.0618C13.646 22.0585 13.5921 22.0658 13.5412 22.0834C13.4902 22.1009 13.4433 22.1282 13.4029 22.1639C13.3625 22.1996 13.3296 22.2428 13.3059 22.2912C13.2823 22.3396 13.2684 22.3922 13.2651 22.446C13.2618 22.4997 13.2691 22.5536 13.2866 22.6045L14.6352 26.529C14.6628 26.6094 14.7148 26.6793 14.7839 26.7289C14.8529 26.7785 14.9357 26.8054 15.0208 26.8059ZM22.6096 26.8059H22.6119C22.7853 26.8059 22.9401 26.6969 22.9982 26.5335L24.0142 23.6825L24.985 26.5283C25.0126 26.609 25.0646 26.6791 25.1339 26.7289C25.2032 26.7786 25.2862 26.8056 25.3715 26.806H25.3732C25.4582 26.806 25.5411 26.7795 25.6105 26.7304C25.6798 26.6812 25.7322 26.6117 25.7603 26.5314L27.1375 22.6024C27.1735 22.4997 27.1672 22.3869 27.1201 22.2889C27.0729 22.1909 26.9887 22.1156 26.8861 22.0796C26.7834 22.0436 26.6707 22.0499 26.5726 22.0971C26.4746 22.1442 26.3993 22.2284 26.3633 22.331L25.3784 25.1408L24.4109 22.3045C24.3011 21.944 23.7507 21.9407 23.6363 22.2992L22.6189 25.1542L21.6512 22.338C21.5776 22.1237 21.3442 22.0096 21.13 22.0834C21.0791 22.1009 21.0321 22.1283 20.9917 22.164C20.9514 22.1996 20.9184 22.2429 20.8948 22.2913C20.8711 22.3397 20.8573 22.3923 20.8539 22.446C20.8506 22.4998 20.8579 22.5537 20.8754 22.6046L22.224 26.5291C22.2517 26.6095 22.3036 26.6793 22.3727 26.7289C22.4418 26.7785 22.5245 26.8054 22.6096 26.8059ZM30.0754 26.8059H30.0776C30.251 26.8059 30.4058 26.6969 30.464 26.5335L31.4799 23.6825L32.4508 26.5283C32.4783 26.609 32.5303 26.6791 32.5996 26.7289C32.6689 26.7786 32.7519 26.8056 32.8372 26.806H32.8389C32.9239 26.806 33.0069 26.7795 33.0762 26.7304C33.1455 26.6812 33.1979 26.6117 33.226 26.5314L34.6032 22.6024C34.6392 22.4997 34.6329 22.3869 34.5857 22.2889C34.5386 22.1909 34.4544 22.1156 34.3517 22.0796C34.2491 22.0436 34.1363 22.0499 34.0383 22.0971C33.9403 22.1442 33.865 22.2284 33.829 22.331L32.8441 25.1408L31.8766 22.3045C31.7669 21.944 31.2163 21.9407 31.1021 22.2992L30.0846 25.1542L29.1168 22.338C29.0994 22.287 29.072 22.24 29.0363 22.1997C29.0007 22.1593 28.9574 22.1263 28.909 22.1027C28.8606 22.0791 28.808 22.0652 28.7543 22.0619C28.7005 22.0586 28.6466 22.0659 28.5957 22.0834C28.5447 22.1009 28.4977 22.1283 28.4574 22.164C28.417 22.1996 28.3841 22.2429 28.3604 22.2913C28.3368 22.3397 28.3229 22.3923 28.3196 22.446C28.3163 22.4998 28.3236 22.5537 28.3411 22.6046L29.6897 26.5291C29.7174 26.6095 29.7694 26.6793 29.8384 26.7289C29.9075 26.7785 29.9903 26.8054 30.0754 26.8059Z" fill="white"/>
</g>
</g>
<defs>
<clipPath id="clip0_14_978">
<rect width="48" height="48" rx="4" fill="white"/>
</clipPath>
<clipPath id="clip1_14_978">
<rect width="28" height="28" fill="white" transform="translate(10 10)"/>
</clipPath>
</defs>
</svg>
