<svg width="48" height="48" viewBox="0 0 48 48" fill="none" xmlns="http://www.w3.org/2000/svg">
<g clip-path="url(#clip0_14_799)">
<rect width="48" height="48" rx="4" fill="#5A49F8"/>
<path d="M48 31L24 20V29L39 48H48V31Z" fill="#4B3BDD"/>
<g clip-path="url(#clip1_14_799)">
<g clip-path="url(#clip2_14_799)">
<path d="M37.5291 34.2606H36.5959V33.3274H35.6627V34.2606H34.7295V33.3274H33.7963V34.2606H26.8525C26.6085 34.2594 26.369 34.3266 26.1613 34.4547C25.9536 34.5829 25.786 34.7667 25.6776 34.9854C25.6466 35.0483 25.5985 35.1012 25.5389 35.1381C25.4792 35.1749 25.4104 35.1942 25.3402 35.1938H22.6532C22.5831 35.1943 22.5142 35.175 22.4545 35.1381C22.3948 35.1012 22.3468 35.0483 22.3158 34.9854C22.2076 34.767 22.0404 34.5834 21.8331 34.4553C21.6258 34.3272 21.3868 34.2598 21.1432 34.2606H14.1994V25.8619H13.2662V34.2606H12.333V25.8619H11.3998V34.2606H10.4666C10.3428 34.2606 10.2242 34.3098 10.1367 34.3973C10.0492 34.4848 10 34.6035 10 34.7272V36.127C10 37.1577 10.8357 37.9934 11.8664 37.9934H36.1293C37.16 37.9934 37.9957 37.1577 37.9957 36.127V34.7272C37.9957 34.6035 37.9465 34.4848 37.859 34.3973C37.7715 34.3098 37.6528 34.2606 37.5291 34.2606ZM37.0625 36.127C37.0625 36.6424 36.6447 37.0602 36.1293 37.0602H11.8664C11.351 37.0602 10.9332 36.6424 10.9332 36.127V35.1938H21.1432C21.2133 35.1934 21.2821 35.2127 21.3418 35.2495C21.4015 35.2864 21.4496 35.3393 21.4806 35.4023C21.5887 35.6206 21.756 35.8042 21.9632 35.9323C22.1705 36.0604 22.4095 36.1279 22.6532 36.127H25.3425C25.5866 36.1283 25.8261 36.0611 26.0338 35.933C26.2415 35.8048 26.4091 35.621 26.5174 35.4023C26.5482 35.3397 26.596 35.287 26.6552 35.2502C26.7144 35.2133 26.7828 35.1938 26.8525 35.1938H37.0625V36.127ZM22.1315 17.4632V16.53H13.7328C12.4448 16.5316 11.4014 17.5751 11.3998 18.863V19.3296H12.333V18.863C12.333 18.09 12.9597 17.4632 13.7328 17.4632H22.1315Z" fill="white"/>
<path d="M13.2662 19.3296H23.0647V18.3965H14.1994C13.684 18.3965 13.2662 18.8143 13.2662 19.3296ZM36.4735 15.8707L37.0336 14.1057C37.0533 14.0438 37.0599 13.9785 37.053 13.914C37.0461 13.8494 37.0258 13.787 36.9934 13.7307C36.961 13.6745 36.9172 13.6256 36.8648 13.5873C36.8125 13.5489 36.7527 13.5219 36.6893 13.5079L34.8792 13.1121L34.4855 11.3041C34.4718 11.2407 34.445 11.1809 34.4069 11.1285C34.3688 11.076 34.3201 11.0321 34.2641 10.9995C34.2081 10.9668 34.1458 10.9462 34.0814 10.939C34.0169 10.9317 33.9517 10.9381 33.8898 10.9575L32.1245 11.5173L30.8749 10.1499C30.7845 10.0568 30.6601 10.0044 30.5302 10.0044C30.4003 10.0044 30.2759 10.0568 30.1855 10.15L28.9376 11.5199L27.1706 10.9576C27.1087 10.9379 27.0434 10.9313 26.9788 10.9382C26.9143 10.9452 26.8519 10.9655 26.7956 10.9979C26.7394 11.0304 26.6905 11.0742 26.6522 11.1266C26.6138 11.1791 26.5869 11.2389 26.573 11.3023L26.1773 13.1122L24.371 13.5079C24.3075 13.5218 24.2477 13.5488 24.1952 13.5871C24.1428 13.6255 24.099 13.6744 24.0665 13.7306C24.0341 13.7869 24.0137 13.8494 24.0068 13.914C23.9999 13.9786 24.0065 14.0439 24.0263 14.1058L24.5863 15.8708L23.2164 17.1186C23.1194 17.207 23.064 17.3321 23.064 17.4633C23.064 17.5945 23.1194 17.7196 23.2164 17.808L24.5863 19.0558L24.0263 20.8208C24.0065 20.8827 23.9999 20.948 24.0068 21.0126C24.0137 21.0772 24.0341 21.1397 24.0665 21.1959C24.099 21.2522 24.1428 21.3011 24.1952 21.3394C24.2477 21.3778 24.3075 21.4048 24.371 21.4186L26.1812 21.8144L26.5766 23.6243C26.5905 23.6878 26.6175 23.7476 26.6559 23.8C26.6942 23.8524 26.7432 23.8962 26.7995 23.9286C26.8557 23.9611 26.9181 23.9815 26.9827 23.9885C27.0473 23.9954 27.1126 23.9888 27.1745 23.969L28.9395 23.4067L30.1873 24.7766C30.231 24.8246 30.2842 24.863 30.3436 24.8892C30.403 24.9155 30.4672 24.929 30.5321 24.929C30.597 24.929 30.6612 24.9155 30.7206 24.8892C30.78 24.863 30.8332 24.8246 30.8769 24.7766L32.1245 23.4067L33.8898 23.9689C33.9516 23.9887 34.0169 23.9953 34.0815 23.9884C34.1461 23.9814 34.2085 23.9611 34.2647 23.9286C34.321 23.8962 34.3698 23.8524 34.4082 23.7999C34.4465 23.7475 34.4735 23.6877 34.4874 23.6242L34.8831 21.8144L36.693 21.4186C36.7564 21.4048 36.8163 21.3778 36.8687 21.3394C36.9212 21.3011 36.965 21.2522 36.9975 21.1959C37.0299 21.1397 37.0503 21.0772 37.0572 21.0126C37.0641 20.948 37.0574 20.8827 37.0377 20.8208L36.4779 19.0558L37.8478 17.808C37.9447 17.7196 38.0001 17.5945 38.0001 17.4633C38.0001 17.3321 37.9447 17.207 37.8478 17.1186L36.4735 15.8707ZM35.624 18.5673C35.558 18.6274 35.5107 18.7053 35.4876 18.7915C35.4645 18.8778 35.4667 18.9689 35.4939 19.0539L35.9895 20.6164L34.3876 20.9668C34.3005 20.986 34.2208 21.0297 34.1578 21.0927C34.0948 21.1557 34.0511 21.2354 34.0319 21.3225L33.6834 22.9225L32.1209 22.425C32.0358 22.3982 31.9448 22.3962 31.8586 22.4193C31.7724 22.4423 31.6946 22.4895 31.6343 22.5552L30.5302 23.7693L29.4261 22.5562C29.3824 22.5082 29.3292 22.4699 29.2698 22.4437C29.2105 22.4175 29.1463 22.404 29.0814 22.404C29.0339 22.4041 28.9867 22.4116 28.9415 22.4261L27.377 22.9225L27.0266 21.3207C27.0075 21.2336 26.9638 21.1539 26.9008 21.0909C26.8377 21.0279 26.758 20.9842 26.671 20.965L25.0709 20.6164L25.5685 19.0539C25.5957 18.9689 25.5978 18.8778 25.5747 18.7915C25.5516 18.7052 25.5042 18.6274 25.4382 18.5673L24.2241 17.4632L25.4372 16.3592C25.5033 16.2991 25.5507 16.2212 25.5737 16.135C25.5968 16.0487 25.5946 15.9576 25.5674 15.8725L25.0709 14.3101L26.6728 13.9597C26.7598 13.9405 26.8395 13.8968 26.9025 13.8338C26.9656 13.7708 27.0092 13.6911 27.0284 13.6041L27.377 12.004L28.9395 12.5016C29.1133 12.557 29.3033 12.5062 29.4261 12.3713L30.5302 11.1572L31.6343 12.3703C31.6944 12.4364 31.7722 12.4837 31.8585 12.5068C31.9447 12.5298 32.0358 12.5276 32.1209 12.5004L33.6834 12.004L34.0337 13.6059C34.0529 13.6929 34.0966 13.7726 34.1596 13.8356C34.2226 13.8987 34.3024 13.9423 34.3894 13.9615L35.9913 14.3119L35.4939 15.8746C35.4667 15.9597 35.4646 16.0507 35.4876 16.137C35.5107 16.2232 35.558 16.3011 35.6239 16.3612L36.8363 17.4633L35.624 18.5673Z" fill="white"/>
<path d="M27.8673 19.4662L32.533 14.8003L33.193 15.4601L28.5271 20.126L27.8673 19.4662ZM29.597 16.0634C29.597 15.2903 28.9702 14.6636 28.1972 14.6636C27.4242 14.6636 26.7974 15.2903 26.7974 16.0634C26.7974 16.8364 27.4242 17.4631 28.1972 17.4631C28.9702 17.4631 29.597 16.8364 29.597 16.0634ZM27.7306 16.0634C27.7306 15.9396 27.7798 15.8209 27.8673 15.7334C27.9548 15.6459 28.0735 15.5968 28.1972 15.5968C28.321 15.5968 28.4396 15.6459 28.5271 15.7334C28.6146 15.8209 28.6638 15.9396 28.6638 16.0634C28.6638 16.1871 28.6146 16.3058 28.5271 16.3933C28.4396 16.4808 28.321 16.53 28.1972 16.53C28.0735 16.53 27.9548 16.4808 27.8673 16.3933C27.7798 16.3058 27.7306 16.1871 27.7306 16.0634ZM32.8632 17.4631C32.0901 17.4631 31.4634 18.0899 31.4634 18.8629C31.4634 19.636 32.0901 20.2627 32.8632 20.2627C33.6362 20.2627 34.2629 19.636 34.2629 18.8629C34.2629 18.0899 33.6362 17.4631 32.8632 17.4631ZM32.8632 19.3295C32.7394 19.3295 32.6207 19.2804 32.5332 19.1929C32.4457 19.1053 32.3965 18.9867 32.3965 18.8629C32.3965 18.7391 32.4457 18.6205 32.5332 18.5329C32.6207 18.4454 32.7394 18.3963 32.8632 18.3963C32.9869 18.3963 33.1056 18.4454 33.1931 18.5329C33.2806 18.6204 33.3298 18.7391 33.3298 18.8629C33.3298 18.9866 33.2806 19.1053 33.1931 19.1928C33.1056 19.2803 32.9869 19.3295 32.8632 19.3295ZM22.1146 22.487C22.0378 22.4687 21.9576 22.4702 21.8816 22.4916C21.8056 22.513 21.7363 22.5534 21.6804 22.6091L17.1263 27.1161L16.019 27.7749C15.2841 28.2023 14.9523 29.0886 15.226 29.8938C15.331 30.2135 15.5248 30.4967 15.7848 30.7104C16.0448 30.9241 16.3603 31.0593 16.6943 31.1003L17.6662 33.0669C17.7049 33.1452 17.7647 33.2111 17.8389 33.2571C17.9132 33.303 17.9988 33.3272 18.0862 33.3269H19.9217C19.9993 33.327 20.0756 33.3078 20.1438 33.271C20.212 33.2342 20.27 33.181 20.3125 33.1162C20.355 33.0513 20.3807 32.9769 20.3873 32.8997C20.3938 32.8225 20.381 32.7448 20.3501 32.6737L19.3841 30.4437L24.4565 30.5278H24.4644C24.5388 30.5278 24.612 30.51 24.6781 30.476C24.7442 30.4419 24.8011 30.3926 24.8443 30.3321C24.8874 30.2715 24.9154 30.2015 24.9261 30.1279C24.9367 30.0543 24.9296 29.9793 24.9053 29.909L22.4498 22.7889C22.424 22.7143 22.3797 22.6475 22.3211 22.5947C22.2625 22.5419 22.1914 22.5049 22.1146 22.487L22.1146 22.487ZM16.1124 29.5945C16.0488 29.4065 16.0521 29.2023 16.1219 29.0164C16.1918 28.8306 16.3237 28.6747 16.4954 28.575L17.2242 28.1426L18.0403 29.7565L17.3493 30.0985C17.2348 30.1553 17.1093 30.1869 16.9815 30.191C16.8537 30.1952 16.7265 30.1719 16.6085 30.1226C16.4925 30.0757 16.3881 30.0042 16.3025 29.913C16.2169 29.8219 16.152 29.7132 16.1124 29.5945ZM18.3764 32.3941L17.6708 30.969C17.7002 30.9561 17.7318 30.9511 17.7612 30.9365L18.4343 30.6034L19.2095 32.3941H18.3764ZM18.9587 29.5054L17.9864 27.5803L21.8123 23.7942L23.809 29.5838L18.9587 29.5054ZM24.5392 25.9808L26.0823 25.4445L26.3882 26.3255L24.8454 26.8618L24.5392 25.9808ZM23.3267 22.8788L24.3558 21.8063L25.0293 22.4524L23.9999 23.525L23.3267 22.8788ZM25.8642 29.128H27.264V30.0612H25.8642V29.128ZM37.5291 25.8618H36.5959V22.5957H35.6627V25.8618H34.7295V24.9287H33.7963V25.8618H28.6638C28.5401 25.8618 28.4214 25.911 28.3339 25.9985C28.2464 26.086 28.1972 26.2047 28.1972 26.3284V31.9276C28.1972 32.0513 28.2464 32.17 28.3339 32.2575C28.4214 32.345 28.5401 32.3942 28.6638 32.3942H37.5291C37.6529 32.3942 37.7715 32.345 37.859 32.2575C37.9465 32.17 37.9957 32.0513 37.9957 31.9276V26.3284C37.9957 26.2047 37.9465 26.086 37.859 25.9985C37.7715 25.911 37.6529 25.8618 37.5291 25.8618ZM37.0625 31.461H29.1304V26.795H37.0625V31.461Z" fill="white"/>
<path d="M30.0636 27.7285H31.93V28.6616H30.0636V27.7285ZM32.8631 27.7285H36.1293V28.6616H32.8631V27.7285ZM30.0636 29.5948H36.1293V30.528H30.0636V29.5948ZM10.4666 24.9289H17.4655C17.5893 24.9289 17.7079 24.8797 17.7954 24.7922C17.883 24.7047 17.9321 24.586 17.9321 24.4623V20.7295C17.9321 20.6058 17.883 20.4871 17.7954 20.3996C17.7079 20.3121 17.5893 20.2629 17.4655 20.2629H10.4666C10.3428 20.2629 10.2242 20.3121 10.1367 20.3996C10.0492 20.4871 10 20.6058 10 20.7295V24.4623C10 24.586 10.0492 24.7047 10.1367 24.7922C10.2242 24.8797 10.3428 24.9289 10.4666 24.9289ZM10.9332 21.1961H16.9989V23.9957H10.9332V21.1961Z" fill="white"/>
<path d="M11.8664 22.1292H12.7996V23.0623H11.8664V22.1292ZM13.7328 22.1292H16.0657V23.0623H13.7328V22.1292Z" fill="white"/>
</g>
</g>
</g>
<defs>
<clipPath id="clip0_14_799">
<rect width="48" height="48" rx="4" fill="white"/>
</clipPath>
<clipPath id="clip1_14_799">
<rect width="28" height="28" fill="white" transform="translate(10 10)"/>
</clipPath>
<clipPath id="clip2_14_799">
<rect width="28" height="28" fill="white" transform="translate(10 10)"/>
</clipPath>
</defs>
</svg>
