<svg width="48" height="48" viewBox="0 0 48 48" fill="none" xmlns="http://www.w3.org/2000/svg">
<g clip-path="url(#clip0_14_836)">
<rect width="48" height="48" rx="4" fill="#01DABA"/>
<path d="M48 31L24 20V29L39 48H48V31Z" fill="#08C1A6"/>
<g clip-path="url(#clip1_14_836)">
<path d="M34.4903 27.3778C34.8432 26.2886 35.0225 25.1525 35.0225 23.9949C35.0225 22.8415 34.8446 21.7095 34.4938 20.6237C35.2652 20.334 35.9665 19.8702 36.5488 19.2535C37.5552 18.1882 38.0863 16.7945 38.0444 15.3297C37.9577 12.3055 35.4271 9.91605 32.4024 10.0024C30.9374 10.0442 29.5766 10.6541 28.5702 11.7196C28.062 12.2578 27.6754 12.8796 27.4222 13.5521C26.3361 13.2016 25.2042 13.0236 24.0504 13.0236C22.8959 13.0236 21.7631 13.202 20.6764 13.553C19.8927 11.4789 17.8867 10 15.5416 10C12.516 10 10.0547 12.4614 10.0547 15.4867C10.0547 17.8316 11.5338 19.8374 13.6079 20.6209C13.2567 21.7078 13.0785 22.8407 13.0785 23.9949C13.0785 25.1525 13.2577 26.2886 13.6106 27.3778C11.535 28.1607 10.0547 30.1673 10.0547 32.5133C10.0547 33.3391 10.2336 34.1332 10.5868 34.8732C10.61 34.9218 10.6425 34.9654 10.6825 35.0014C10.7226 35.0375 10.7693 35.0653 10.8201 35.0833C10.8709 35.1012 10.9247 35.109 10.9785 35.1062C11.0323 35.1034 11.085 35.09 11.1336 35.0668C11.2318 35.0199 11.3073 34.9359 11.3436 34.8334C11.3799 34.7309 11.374 34.6181 11.3272 34.5199C11.0271 33.891 10.875 33.2159 10.875 32.5133C10.875 29.9404 12.9685 27.8472 15.5416 27.8472C18.1149 27.8472 20.2084 29.9404 20.2084 32.5133C20.2084 35.0864 18.1149 37.1797 15.5416 37.1797C14.368 37.1797 13.2462 36.7424 12.3831 35.9483C12.2163 35.795 11.9567 35.8059 11.8036 35.9725C11.7671 36.0121 11.7388 36.0586 11.7202 36.1092C11.7017 36.1597 11.6933 36.2135 11.6956 36.2673C11.6978 36.3211 11.7107 36.374 11.7333 36.4228C11.756 36.4717 11.7881 36.5156 11.8277 36.552C12.8426 37.4858 14.1616 38 15.5416 38C17.8901 38 19.8986 36.5166 20.6798 34.4378C21.7653 34.7882 22.897 34.9661 24.0504 34.9661C25.204 34.9661 26.3359 34.7882 27.4213 34.438C28.2026 36.5169 30.2111 38 32.5597 38C35.5852 38 38.0466 35.5386 38.0466 32.5133C38.0466 30.1673 36.5662 28.1605 34.4903 27.3778ZM29.1667 12.2828C30.0224 11.3766 31.1801 10.8579 32.4261 10.8222C32.4713 10.8209 32.5164 10.8203 32.5616 10.8203C35.0734 10.8203 37.1521 12.8265 37.2243 15.353C37.26 16.5988 36.8084 17.784 35.9526 18.6904C35.0968 19.5966 33.9392 20.1153 32.6931 20.1509C32.648 20.1522 32.6028 20.1528 32.5577 20.1528C30.0459 20.1528 27.9672 18.1467 27.895 15.6202C27.859 14.3743 28.3109 13.189 29.1667 12.2828ZM27.1913 33.6502C26.1806 33.9788 25.126 34.1458 24.0504 34.1458C22.9752 34.1458 21.9206 33.9788 20.9099 33.6502C20.9889 33.2764 21.0287 32.8953 21.0287 32.5133C21.0287 29.4879 18.5671 27.0268 15.5416 27.0268C15.1496 27.0268 14.7672 27.0685 14.3983 27.1469C14.0669 26.1326 13.8988 25.0741 13.8988 23.9949C13.8988 22.919 14.0661 21.864 14.3953 20.8522C14.772 20.9327 15.1563 20.9733 15.5416 20.9732C16.4815 20.9732 17.4089 20.7313 18.2238 20.274C18.4212 20.1631 18.4915 19.9132 18.3806 19.7156C18.2698 19.518 18.0198 19.4479 17.8223 19.5588C17.1296 19.9474 16.3409 20.1528 15.5416 20.1528C12.9682 20.1528 10.875 18.0596 10.875 15.4865C10.875 12.9136 12.9685 10.8203 15.5416 10.8203C18.1149 10.8203 20.2084 12.9136 20.2084 15.4867C20.2084 16.5632 19.8331 17.6133 19.1516 18.4441C19.0078 18.6191 19.0335 18.8775 19.2086 19.0213C19.2927 19.0903 19.4008 19.123 19.509 19.1123C19.6173 19.1016 19.7168 19.0483 19.7858 18.9643C20.5871 17.9874 21.0287 16.7522 21.0287 15.4865C21.0287 15.0936 20.9866 14.7102 20.9078 14.3404C21.9193 14.0112 22.9746 13.8439 24.0504 13.8439C25.126 13.8439 26.1809 14.011 27.1919 14.3397C27.1015 14.7682 27.0622 15.2059 27.0749 15.6437C27.1601 18.6145 29.604 20.9734 32.5575 20.9732C32.9434 20.9732 33.3283 20.933 33.7059 20.8531C34.0349 21.8644 34.2022 22.9195 34.2022 23.9949C34.2022 25.0741 34.0339 26.1326 33.7027 27.1469C33.327 27.0669 32.9438 27.0267 32.5597 27.0268C29.5341 27.0268 27.0728 29.488 27.0728 32.5133C27.0728 32.9032 27.1138 33.2834 27.1913 33.6502ZM32.5597 37.1797C29.9863 37.1797 27.8931 35.0864 27.8931 32.5135C27.8931 29.9404 29.9863 27.8472 32.5597 27.8472C35.1329 27.8472 37.2263 29.9404 37.2263 32.5135C37.2263 35.0864 35.1329 37.1797 32.5597 37.1797Z" fill="white"/>
<path d="M18.3344 13.0656C18.2654 13.0186 18.1837 12.9938 18.1002 12.9945C18.0167 12.9952 17.9354 13.0214 17.8673 13.0696C17.728 13.1678 17.5782 13.2503 17.4208 13.3155C16.8573 12.8745 16.0406 12.8797 15.4811 13.3661C15.1925 13.6167 15.0087 13.9666 14.9662 14.3465C14.6659 14.3018 14.3777 14.1964 14.1194 14.0367C13.8612 13.877 13.6381 13.6663 13.4639 13.4176C13.4221 13.3583 13.3654 13.3111 13.2994 13.2808C13.2335 13.2505 13.1608 13.2383 13.0885 13.2452C13.0163 13.2522 12.9472 13.2783 12.8883 13.3207C12.8294 13.3632 12.7828 13.4205 12.7533 13.4868C12.7416 13.5133 12.4656 14.1439 12.5008 14.9157C12.5278 15.5064 12.739 16.2677 13.5096 16.8556C13.2313 16.9457 12.9393 16.9861 12.6469 16.9748C12.5548 16.9713 12.4642 16.9989 12.3896 17.0531C12.3151 17.1074 12.261 17.1852 12.2361 17.274C12.2112 17.3628 12.2169 17.4574 12.2523 17.5425C12.2878 17.6276 12.3509 17.6983 12.4314 17.7432C13.0749 18.1006 13.7642 18.2797 14.4377 18.2797C15.0848 18.2797 15.7172 18.1143 16.2798 17.7834C16.9854 17.3683 17.4981 16.7328 17.7765 15.9567C17.7852 15.937 17.7925 15.9166 17.7983 15.8954C17.9414 15.4739 18.0164 15.0123 18.0164 14.5227C18.0164 14.5013 18.0157 14.4797 18.0149 14.4583C18.2496 14.1817 18.4165 13.8542 18.5024 13.5017C18.5221 13.4206 18.5165 13.3354 18.4865 13.2574C18.4565 13.1795 18.4035 13.1126 18.3345 13.0656H18.3344ZM17.1834 14.3947C17.1916 14.4375 17.1959 14.4816 17.1959 14.524C17.1959 14.926 17.136 15.2983 17.0222 15.6348C17.0159 15.6504 17.0107 15.6664 17.0066 15.6826C16.7936 16.2787 16.4059 16.7574 15.8639 17.0763C15.3679 17.3684 14.7986 17.4927 14.2184 17.4506C14.3513 17.3848 14.4797 17.31 14.6025 17.2267C14.663 17.1856 14.7114 17.1291 14.7427 17.063C14.774 16.9969 14.7871 16.9236 14.7806 16.8508C14.7741 16.7779 14.7483 16.7081 14.7057 16.6486C14.6631 16.5891 14.6054 16.542 14.5386 16.5123C13.7727 16.172 13.3632 15.6307 13.3216 14.9038C13.314 14.7627 13.319 14.6212 13.3366 14.481C13.9007 14.9524 14.6234 15.2097 15.3777 15.1902C15.4846 15.1875 15.5863 15.1431 15.6609 15.0665C15.7356 14.99 15.7774 14.8872 15.7774 14.7803V14.5259C15.7759 14.4236 15.7968 14.3222 15.8386 14.2288C15.8804 14.1354 15.9421 14.0522 16.0194 13.9852C16.3125 13.7303 16.7581 13.7613 17.013 14.0544C17.063 14.1119 17.1282 14.1543 17.201 14.1768C17.1756 14.2465 17.1696 14.3218 17.1835 14.3947H17.1834ZM31.21 15.8102H31.7915V18.256C31.7915 18.3647 31.8347 18.4691 31.9116 18.546C31.9885 18.6229 32.0928 18.6661 32.2016 18.6661C32.3104 18.6661 32.4147 18.6229 32.4916 18.546C32.5686 18.4691 32.6118 18.3647 32.6118 18.256V15.8102H33.2452C33.4716 15.8102 33.6553 15.6264 33.6553 15.4C33.6553 15.1736 33.4716 14.9898 33.2452 14.9898H32.6118V13.8423C32.6118 13.4484 32.9324 13.1277 33.3265 13.1277H33.8575C34.0841 13.1277 34.2677 12.944 34.2677 12.7175C34.2677 12.6087 34.2245 12.5044 34.1476 12.4275C34.0707 12.3506 33.9663 12.3074 33.8575 12.3074H33.3265C32.4801 12.3074 31.7915 12.9959 31.7915 13.8423V14.9898H31.21C30.9836 14.9898 30.7998 15.1736 30.7998 15.4C30.7998 15.6264 30.9836 15.8102 31.21 15.8102ZM14.611 34.6346C14.7087 34.6346 14.8062 34.6094 14.8932 34.5592L17.685 32.9466C17.7707 32.897 17.8419 32.8257 17.8914 32.7399C17.941 32.6541 17.9671 32.5568 17.9672 32.4578C17.9672 32.257 17.8592 32.0697 17.685 31.9693L14.8932 30.3566C14.8074 30.3072 14.7102 30.2811 14.6111 30.2811C14.5121 30.2811 14.4148 30.3072 14.329 30.3566C14.2433 30.4062 14.1721 30.4775 14.1225 30.5633C14.073 30.649 14.0468 30.7463 14.0466 30.8454V34.0705C14.0466 34.2715 14.1549 34.4588 14.329 34.5592C14.4147 34.6088 14.512 34.6348 14.611 34.6346V34.6346ZM14.8669 31.2889L16.8912 32.4581L14.8669 33.6272V31.2889ZM34.3419 29.6085H30.7774C30.1583 29.6085 29.6545 30.1122 29.6545 30.7315V34.2954C29.6545 34.9147 30.1583 35.4184 30.7774 35.4184H34.3419C34.961 35.4184 35.4647 34.9147 35.4647 34.2954V30.7315C35.4647 30.1123 34.961 29.6085 34.3419 29.6085ZM34.6443 34.2954C34.6443 34.3756 34.6124 34.4526 34.5557 34.5093C34.499 34.5661 34.4221 34.598 34.3419 34.5981H30.7774C30.6971 34.598 30.6202 34.5661 30.5635 34.5094C30.5068 34.4526 30.4749 34.3757 30.4749 34.2954V30.7315C30.4749 30.6513 30.5068 30.5744 30.5635 30.5176C30.6202 30.4609 30.6972 30.429 30.7774 30.4288H34.3419C34.4221 30.429 34.499 30.4609 34.5557 30.5177C34.6124 30.5744 34.6443 30.6513 34.6443 30.7315V34.2954Z" fill="white"/>
<path d="M32.5597 31.2737C31.8761 31.2737 31.3198 31.83 31.3198 32.5136C31.3198 33.1972 31.8761 33.7532 32.5597 33.7532C33.2433 33.7532 33.7995 33.1972 33.7995 32.5136C33.7995 31.83 33.2433 31.2737 32.5597 31.2737ZM32.5597 32.9329C32.3284 32.9329 32.1401 32.7447 32.1401 32.5136C32.1401 32.2822 32.3283 32.094 32.5597 32.094C32.7911 32.094 32.9792 32.2822 32.9792 32.5136C32.9792 32.7447 32.791 32.9329 32.5597 32.9329ZM27.0189 19.7396C26.9101 19.7396 26.8058 19.7828 26.7289 19.8597C26.652 19.9366 26.6088 20.0409 26.6088 20.1497V20.3336C26.0302 20.6747 25.4246 20.9676 24.798 21.2093C24.2959 21.4024 23.7815 21.5622 23.2583 21.6876C23.1755 21.6234 23.0738 21.5885 22.969 21.5884H21.0911C20.6374 21.5884 20.2684 21.9576 20.2684 22.4111V24.5651C20.2684 25.0188 20.6374 25.3877 21.0911 25.3877H21.4664L21.6087 28.1225C21.6115 28.1763 21.6249 28.229 21.648 28.2776C21.6712 28.3263 21.7037 28.3698 21.7438 28.4059C21.7838 28.4419 21.8305 28.4697 21.8813 28.4877C21.932 28.5057 21.9858 28.5135 22.0396 28.5107C22.1482 28.505 22.2502 28.4564 22.323 28.3757C22.3958 28.2949 22.4335 28.1885 22.4279 28.0798L22.2878 25.3877H22.969C23.0778 25.3877 23.1779 25.3505 23.2581 25.2888C23.5911 25.3691 23.9205 25.4632 24.2457 25.571C24.2968 25.588 24.3507 25.5947 24.4045 25.5908C24.4582 25.5869 24.5106 25.5724 24.5588 25.5483C24.6069 25.5241 24.6498 25.4907 24.6851 25.45C24.7203 25.4092 24.7472 25.3619 24.7641 25.3108C24.7811 25.2597 24.7878 25.2057 24.7839 25.152C24.78 25.0983 24.7656 25.0458 24.7414 24.9977C24.7172 24.9496 24.6838 24.9066 24.6431 24.8714C24.6024 24.8362 24.5551 24.8093 24.5039 24.7924C24.1548 24.6766 23.8009 24.5755 23.4433 24.4894V22.4872C24.0038 22.3529 24.5549 22.1817 25.0929 21.9747C25.6125 21.7743 26.1187 21.541 26.6086 21.2761V25.701C26.4288 25.6039 26.2468 25.5111 26.0626 25.4225C26.0141 25.3991 25.9614 25.3856 25.9076 25.3826C25.8538 25.3795 25.8 25.3872 25.7492 25.405C25.6983 25.4228 25.6515 25.4505 25.6114 25.4864C25.5712 25.5223 25.5386 25.5658 25.5153 25.6144C25.4919 25.6629 25.4784 25.7156 25.4754 25.7694C25.4724 25.8231 25.48 25.877 25.4978 25.9278C25.5156 25.9787 25.5433 26.0255 25.5792 26.0657C25.6151 26.1058 25.6586 26.1385 25.7071 26.1618C26.0141 26.3099 26.3148 26.4706 26.6086 26.6434V26.8265C26.6086 26.9352 26.6518 27.0396 26.7287 27.1165C26.8056 27.1934 26.91 27.2366 27.0187 27.2366C27.1275 27.2366 27.2319 27.1934 27.3088 27.1165C27.3857 27.0396 27.4289 26.9352 27.4289 26.8265V20.1497C27.4289 20.0958 27.4183 20.0425 27.3978 19.9927C27.3772 19.943 27.347 19.8977 27.3089 19.8596C27.2708 19.8216 27.2256 19.7913 27.1759 19.7707C27.1261 19.7501 27.0728 19.7395 27.019 19.7395L27.0189 19.7396ZM22.6232 24.5672L21.0888 24.5651L21.0911 22.4087H22.6232V24.5672Z" fill="white"/>
</g>
</g>
<defs>
<clipPath id="clip0_14_836">
<rect width="48" height="48" rx="4" fill="white"/>
</clipPath>
<clipPath id="clip1_14_836">
<rect width="28" height="28" fill="white" transform="translate(10 10)"/>
</clipPath>
</defs>
</svg>
