<svg width="48" height="48" viewBox="0 0 48 48" fill="none" xmlns="http://www.w3.org/2000/svg">
<g clip-path="url(#clip0_14_818)">
<rect width="48" height="48" rx="4" fill="#36BAFE"/>
<path d="M48 31L24 20V29L39 48H48V31Z" fill="#08ABFF"/>
<g clip-path="url(#clip1_14_818)">
<path d="M35.1364 21.4545H34.4928C34.4395 19.3569 33.7552 17.3241 32.5292 15.6214C31.3032 13.9186 29.5924 12.6249 27.62 11.909H32.9544C33.0318 12.209 33.216 12.4704 33.4724 12.6442C33.7287 12.8181 34.0397 12.8925 34.347 12.8534C34.6543 12.8144 34.9369 12.6646 35.1416 12.4322C35.3464 12.1998 35.4594 11.9006 35.4594 11.5908C35.4594 11.2811 35.3464 10.9819 35.1416 10.7495C34.9369 10.5171 34.6543 10.3673 34.347 10.3283C34.0397 10.2892 33.7287 10.3636 33.4724 10.5375C33.216 10.7113 33.0318 10.9727 32.9544 11.2727H25.2728V10.6363C25.2728 10.5519 25.2393 10.471 25.1796 10.4113C25.1199 10.3516 25.039 10.3181 24.9546 10.3181H23.0455C22.9612 10.3181 22.8802 10.3516 22.8206 10.4113C22.7609 10.471 22.7274 10.5519 22.7274 10.6363V11.2727H15.0458C14.9684 10.9727 14.7842 10.7113 14.5278 10.5375C14.2714 10.3636 13.9604 10.2892 13.6531 10.3283C13.3458 10.3673 13.0633 10.5171 12.8585 10.7495C12.6537 10.9819 12.5408 11.2811 12.5408 11.5908C12.5408 11.9006 12.6537 12.1998 12.8585 12.4322C13.0633 12.6646 13.3458 12.8144 13.6531 12.8534C13.9604 12.8925 14.2714 12.8181 14.5278 12.6442C14.7842 12.4704 14.9684 12.209 15.0458 11.909H20.3801C18.4078 12.6249 16.697 13.9186 15.471 15.6214C14.245 17.3241 13.5607 19.3569 13.5074 21.4545H12.8637C12.7793 21.4545 12.6984 21.488 12.6387 21.5477C12.5791 21.6073 12.5455 21.6883 12.5455 21.7727V23.6818C12.5455 23.7661 12.5791 23.8471 12.6387 23.9067C12.6984 23.9664 12.7793 23.9999 12.8637 23.9999H14.7728C14.8572 23.9999 14.9381 23.9664 14.9978 23.9067C15.0575 23.8471 15.091 23.7661 15.091 23.6818V21.7727C15.091 21.6883 15.0575 21.6073 14.9978 21.5477C14.9381 21.488 14.8572 21.4545 14.7728 21.4545H14.1438C14.2076 19.1118 15.1084 16.8695 16.6831 15.1338C18.2577 13.398 20.402 12.2837 22.7274 11.9927V12.5454C22.7274 12.6298 22.7609 12.7107 22.8206 12.7704C22.8802 12.8301 22.9612 12.8636 23.0455 12.8636H24.9546C25.039 12.8636 25.1199 12.8301 25.1796 12.7704C25.2393 12.7107 25.2728 12.6298 25.2728 12.5454V11.9927C27.5982 12.2837 29.7425 13.398 31.3171 15.1338C32.8917 16.8695 33.7926 19.1118 33.8564 21.4545H33.2274C33.143 21.4545 33.062 21.488 33.0024 21.5477C32.9427 21.6073 32.9092 21.6883 32.9092 21.7727V23.6818C32.9092 23.7661 32.9427 23.8471 33.0024 23.9067C33.062 23.9664 33.143 23.9999 33.2274 23.9999H35.1364C35.2208 23.9999 35.3018 23.9664 35.3614 23.9067C35.4211 23.8471 35.4546 23.7661 35.4546 23.6818V21.7727C35.4546 21.6883 35.4211 21.6073 35.3614 21.5477C35.3018 21.488 35.2208 21.4545 35.1364 21.4545Z" fill="white"/>
<path d="M24.9213 14.3122C24.8893 14.248 24.8365 14.1965 24.7716 14.1661C24.7066 14.1356 24.6333 14.128 24.5635 14.1445C24.4936 14.161 24.4314 14.2005 24.3869 14.2568C24.3424 14.3131 24.3183 14.3827 24.3183 14.4545V24.7667C24.3183 24.8283 24.3362 24.8886 24.3699 24.9402C24.4035 24.9919 24.4513 25.0326 24.5076 25.0576C24.7759 25.1742 24.9958 25.3797 25.1304 25.6395C25.2649 25.8993 25.3058 26.1975 25.2462 26.4839C25.1866 26.7703 25.0302 27.0275 24.8033 27.2121C24.5763 27.3967 24.2927 27.4975 24.0001 27.4975C23.7076 27.4975 23.424 27.3967 23.197 27.2121C22.9701 27.0275 22.8137 26.7703 22.7541 26.4839C22.6945 26.1975 22.7354 25.8993 22.8699 25.6395C23.0045 25.3797 23.2244 25.1742 23.4926 25.0576C23.549 25.0326 23.5968 24.9919 23.6304 24.9402C23.664 24.8886 23.6819 24.8283 23.682 24.7667V14.4545C23.682 14.3827 23.6579 14.3131 23.6134 14.2568C23.5689 14.2005 23.5067 14.161 23.4368 14.1445C23.367 14.128 23.2937 14.1356 23.2287 14.1661C23.1638 14.1965 23.111 14.248 23.079 14.3122L17.0336 26.4031C17.0115 26.4473 17 26.496 17 26.5454C17 26.5947 17.0115 26.6434 17.0336 26.6876L19.3493 31.3181H28.6516L30.9667 26.6876C30.9888 26.6434 31.0003 26.5947 31.0003 26.5454C31.0003 26.496 30.9888 26.4473 30.9667 26.4031L24.9213 14.3122Z" fill="white"/>
<path d="M29.4091 31.9546H18.5909C18.4152 31.9546 18.2727 32.097 18.2727 32.2728V34.1819C18.2727 34.3576 18.4152 34.5 18.5909 34.5H29.4091C29.5848 34.5 29.7273 34.3576 29.7273 34.1819V32.2728C29.7273 32.097 29.5848 31.9546 29.4091 31.9546Z" fill="white"/>
<path d="M19.2273 37.3635C19.2273 37.4479 19.2608 37.5288 19.3205 37.5885C19.3802 37.6482 19.4611 37.6817 19.5455 37.6817H28.4546C28.539 37.6817 28.6199 37.6482 28.6796 37.5885C28.7392 37.5288 28.7727 37.4479 28.7727 37.3635V35.1362H19.2273V37.3635Z" fill="white"/>
</g>
</g>
<defs>
<clipPath id="clip0_14_818">
<rect width="48" height="48" rx="4" fill="white"/>
</clipPath>
<clipPath id="clip1_14_818">
<rect width="28" height="28" fill="white" transform="translate(10 10)"/>
</clipPath>
</defs>
</svg>
