<svg width="48" height="48" viewBox="0 0 48 48" fill="none" xmlns="http://www.w3.org/2000/svg">
<g clip-path="url(#clip0_14_990)">
<rect width="48" height="48" rx="4" fill="#FF930E"/>
<path d="M48 31L24 20V29L39 48H48V31Z" fill="#EA8810"/>
<g clip-path="url(#clip1_14_990)">
<path d="M37.4809 33.1816L32.4264 28.2759C32.0989 27.958 31.6673 27.7874 31.2085 27.7936C31.0571 27.7959 30.9067 27.8181 30.7611 27.8596L28.4827 25.6483C28.7137 25.2996 28.9228 24.9368 29.1086 24.562C29.136 24.5068 29.1568 24.4501 29.1717 24.3927H29.9226C30.4058 24.3927 30.7974 24.0009 30.7974 23.5176C30.7974 23.0343 30.4057 22.6425 29.9224 22.6425L27.0252 22.6426V20.943H28.9796C29.4628 20.943 29.8545 20.5512 29.8545 20.0679C29.8545 19.5846 29.4628 19.1928 28.9796 19.1928H27.0252V17.5939H29.9225C30.4058 17.5939 30.7974 17.2021 30.7974 16.7188C30.7974 16.2355 30.4057 15.8437 29.9225 15.8437H29.2275C28.8748 15.0839 28.429 14.3709 27.9005 13.721C24.3956 9.40744 18.0355 8.75032 13.7229 12.256C11.6337 13.9542 10.3308 16.3644 10.0541 19.0428C9.77753 21.7211 10.5603 24.3469 12.2582 26.4364C13.956 28.5259 16.3658 29.8291 19.0437 30.1057C19.3965 30.1422 19.7483 30.1603 20.0982 30.1603C22.0577 30.1603 23.9538 29.5934 25.5924 28.5182L27.8405 30.7001C27.743 30.9243 27.6946 31.1668 27.6986 31.4112C27.7055 31.8692 27.8897 32.2965 28.2171 32.6142L33.2717 37.5199C33.6038 37.8422 34.0338 38.0024 34.4636 38.0024C34.9105 38.0024 35.3571 37.8289 35.6922 37.4835L37.5171 35.6025C38.1744 34.9251 38.1581 33.8391 37.4809 33.1816ZM29.3796 28.9576L28.9812 29.3682L26.9798 27.4258C27.1191 27.2954 27.2547 27.1611 27.3864 27.0231L29.3796 28.9576ZM19.2235 28.3648C17.0106 28.1361 15.0192 27.0593 13.6162 25.3325C12.213 23.6057 11.5662 21.4359 11.7948 19.2226C12.0235 17.0093 13.1001 15.0176 14.8265 13.6142C18.3904 10.7173 23.6462 11.2604 26.5425 14.8248C26.8037 15.1465 27.0407 15.487 27.2517 15.8436H26.1503C25.667 15.8436 25.2753 16.2354 25.2753 16.7187V23.5177C25.2753 23.7498 25.3675 23.9723 25.5316 24.1365C25.6957 24.3006 25.9182 24.3928 26.1503 24.3929L27.2069 24.3928C26.7137 25.2095 26.0853 25.9309 25.3322 26.5431C23.6058 27.9464 21.4366 28.5933 19.2235 28.3648ZM34.463 36.2372L29.4633 31.3847L31.2349 29.5585L36.2347 34.411L34.463 36.2372ZM19.6575 17.799V18.9918C19.6575 19.103 19.7515 19.1969 19.8627 19.1969H22.3262C23.4042 19.1969 24.2813 20.0742 24.2813 21.1525V22.3451C24.2813 23.4234 23.4042 24.3007 22.3262 24.3007H18.7825C18.2992 24.3007 17.9075 23.9089 17.9075 23.4256C17.9075 22.9423 18.2993 22.5505 18.7825 22.5505H22.3262C22.4374 22.5505 22.5314 22.4565 22.5314 22.3452V21.1526C22.5314 21.0413 22.4374 20.9473 22.3262 20.9473H19.8627C18.7847 20.9473 17.9076 20.07 17.9076 18.9918V17.7991C17.9076 16.7209 18.7846 15.8437 19.8627 15.8437H23.4065C23.8898 15.8437 24.2814 16.2355 24.2814 16.7188C24.2814 17.2021 23.8897 17.5939 23.4065 17.5939H19.8627C19.7514 17.5938 19.6575 17.6878 19.6575 17.799ZM34.1762 24.3479C35.8884 24.3479 37.2815 22.9546 37.2815 21.242V18.8939C37.2815 17.1813 35.8884 15.7881 34.1762 15.7881C32.464 15.7881 31.0709 17.1814 31.0709 18.8939V21.242C31.0709 22.9546 32.464 24.3479 34.1762 24.3479ZM32.8209 18.8939C32.8209 18.1464 33.4289 17.5383 34.1762 17.5383C34.9236 17.5383 35.5315 18.1465 35.5315 18.8939V21.242C35.5315 21.9896 34.9235 22.5976 34.1762 22.5976C33.4289 22.5976 32.8209 21.9895 32.8209 21.242V18.8939Z" fill="white"/>
</g>
</g>
<defs>
<clipPath id="clip0_14_990">
<rect width="48" height="48" rx="4" fill="white"/>
</clipPath>
<clipPath id="clip1_14_990">
<rect width="28" height="28" fill="white" transform="translate(10 10)"/>
</clipPath>
</defs>
</svg>
