<svg width="48" height="48" viewBox="0 0 48 48" fill="none" xmlns="http://www.w3.org/2000/svg">
<g clip-path="url(#clip0_14_967)">
<rect width="48" height="48" rx="4" fill="#18DC59"/>
<path d="M48 31L24 20V29L39 48H48V31Z" fill="#15C04E"/>
<g clip-path="url(#clip1_14_967)">
<g clip-path="url(#clip2_14_967)">
<path d="M37.7572 30.3722L34.8872 28.9372L33.0606 24.186C33.0391 24.1298 33.0063 24.0786 32.9641 24.0357C32.922 23.9928 32.8714 23.9591 32.8156 23.9366L21.4822 19.4063C21.4029 19.3747 21.3162 19.367 21.2326 19.3841C21.1491 19.4012 21.0724 19.4424 21.0119 19.5025L19.5003 21.0141C19.441 21.0746 19.4005 21.1511 19.3838 21.2342C19.3671 21.3173 19.3749 21.4035 19.4062 21.4822L23.9366 32.8156C23.9591 32.8714 23.9928 32.922 24.0357 32.9641C24.0786 33.0063 24.1298 33.0391 24.1859 33.0606L28.9372 34.8872L30.3722 37.7572C30.4024 37.8205 30.4474 37.8756 30.5034 37.9178C30.5593 37.9601 30.6246 37.9883 30.6937 38C30.717 38.0022 30.7405 38.0022 30.7637 38C30.8796 37.9995 30.9905 37.9531 31.0722 37.871L37.8709 31.0722C37.921 31.0239 37.9588 30.9644 37.9812 30.8986C38.0037 30.8328 38.0101 30.7626 38 30.6938C37.9883 30.6246 37.9601 30.5593 37.9178 30.5034C37.8756 30.4474 37.8205 30.4024 37.7572 30.3722ZM20.3228 21.4253L20.5656 21.1847L26.2072 26.8263C25.8354 27.3531 25.6748 28.0003 25.7572 28.6398C25.8396 29.2794 26.159 29.8647 26.6522 30.2801C27.1454 30.6955 27.7765 30.9107 28.4207 30.8832C29.065 30.8556 29.6754 30.5873 30.1314 30.1314C30.5873 29.6754 30.8556 29.065 30.8831 28.4207C30.9107 27.7765 30.6955 27.1454 30.2801 26.6522C29.8647 26.159 29.2793 25.8396 28.6398 25.7572C28.0003 25.6748 27.3531 25.8354 26.8262 26.2072L21.1847 20.5656L21.4253 20.3228L32.3125 24.6781L34.0297 29.145L29.145 34.0297L24.6781 32.3125L20.3228 21.4253ZM28.3094 26.6097C28.7026 26.6103 29.0834 26.7472 29.387 26.9971C29.6906 27.2469 29.8982 27.5944 29.9743 27.9801C30.0505 28.3658 29.9906 28.7661 29.8048 29.1126C29.619 29.4591 29.3188 29.7305 28.9553 29.8805C28.5918 30.0305 28.1876 30.0499 27.8115 29.9353C27.4353 29.8207 27.1106 29.5792 26.8925 29.252C26.6744 28.9249 26.5766 28.5322 26.6155 28.1409C26.6545 27.7497 26.8279 27.384 27.1062 27.1063C27.4257 26.7879 27.8584 26.6093 28.3094 26.6097ZM30.8841 36.8231L29.7903 34.6356L34.6312 29.7947L36.8187 30.8885L30.8841 36.8231Z" fill="white"/>
<path d="M18.3672 33.4062C18.2835 33.3271 18.1728 33.2831 18.0577 33.2831C17.9425 33.2831 17.8318 33.3271 17.7481 33.4062L17.1925 33.9618C15.7098 31.9494 14.8918 29.5246 14.8526 27.0253C14.8134 24.5259 15.5549 22.0766 16.9738 20.0187C17.3988 20.2526 17.8883 20.3425 18.3688 20.2748C18.8492 20.2071 19.2948 19.9856 19.6388 19.6434C19.9827 19.3011 20.2065 18.8567 20.2766 18.3765C20.3467 17.8964 20.2593 17.4065 20.0275 16.9803C22.0854 15.5614 24.5347 14.8199 27.0341 14.8591C29.5334 14.8983 31.9582 15.7163 33.9706 17.199L33.4063 17.7481C33.3249 17.8301 33.2793 17.941 33.2794 18.0565C33.279 18.1141 33.2901 18.1712 33.3119 18.2245C33.3336 18.2778 33.3657 18.3263 33.4063 18.3671L35.3356 20.2812C35.4176 20.3627 35.5285 20.4084 35.6441 20.4084C35.7596 20.4084 35.8705 20.3627 35.9525 20.2812L37.8709 18.3628C37.9116 18.3221 37.9439 18.2739 37.9659 18.2208C37.9879 18.1677 37.9993 18.1107 37.9993 18.0532C37.9993 17.9957 37.9879 17.9388 37.9659 17.8857C37.9439 17.8326 37.9116 17.7843 37.8709 17.7437L35.9525 15.8253C35.8705 15.7438 35.7596 15.698 35.6441 15.698C35.5285 15.698 35.4176 15.7438 35.3356 15.8253L34.5941 16.5625C32.7664 15.1872 30.6057 14.3231 28.3337 14.059C26.0617 13.7949 23.7603 14.1403 21.6659 15.0596L24.1881 12.544C24.4741 12.6807 24.7992 12.7116 25.1059 12.6313C25.4125 12.551 25.6808 12.3648 25.8631 12.1055C26.0454 11.8463 26.13 11.5308 26.1019 11.2151C26.0738 10.8994 25.9347 10.6039 25.7094 10.3809C25.4841 10.158 25.1871 10.0221 24.8712 9.99728C24.5552 9.97248 24.2406 10.0604 23.9833 10.2455C23.726 10.4305 23.5426 10.7007 23.4655 11.0082C23.3885 11.3156 23.4228 11.6404 23.5625 11.925L19.3056 16.1884C18.8734 15.8985 18.3539 15.7676 17.8359 15.8181C17.318 15.8687 16.8336 16.0975 16.4656 16.4655C16.0976 16.8335 15.8687 17.3179 15.8182 17.8359C15.7676 18.3539 15.8985 18.8734 16.1884 19.3056L11.925 23.5625C11.6394 23.4233 11.3136 23.3899 11.0057 23.4682C10.6977 23.5465 10.4275 23.7314 10.2431 23.9901C10.0586 24.2488 9.97181 24.5646 9.99816 24.8812C10.0245 25.1979 10.1622 25.4949 10.3869 25.7196C10.6116 25.9443 10.9087 26.082 11.2253 26.1084C11.542 26.1347 11.8577 26.0479 12.1164 25.8635C12.3751 25.679 12.5601 25.4088 12.6384 25.1008C12.7167 24.7929 12.6833 24.4672 12.5441 24.1815L15.0663 21.6659C14.146 23.7597 13.7995 26.0607 14.0624 28.3327C14.3254 30.6047 15.1883 32.7658 16.5625 34.594L15.8231 35.3356C15.7416 35.4175 15.6959 35.5284 15.6959 35.644C15.6959 35.7596 15.7416 35.8705 15.8231 35.9525L17.7416 37.8709C17.8232 37.9531 17.9342 37.9995 18.05 38C18.1077 38 18.1649 37.9886 18.2182 37.9665C18.2715 37.9443 18.3199 37.9118 18.3606 37.8709L20.2813 35.9525C20.3627 35.8705 20.4085 35.7596 20.4085 35.644C20.4085 35.5284 20.3627 35.4175 20.2813 35.3356L18.3672 33.4062ZM35.6484 16.7484L36.9478 18.0478L35.6484 19.3471L34.3491 18.0478L35.6484 16.7484ZM24.4375 11.0128C24.5025 10.9472 24.5855 10.9025 24.676 10.8842C24.7665 10.8659 24.8604 10.8749 24.9457 10.9101C25.0311 10.9452 25.1041 11.0049 25.1555 11.0816C25.2068 11.1583 25.2342 11.2486 25.2342 11.3409C25.2342 11.4332 25.2068 11.5234 25.1555 11.6001C25.1041 11.6769 25.0311 11.7366 24.9457 11.7717C24.8604 11.8069 24.7665 11.8159 24.676 11.7976C24.5855 11.7793 24.5025 11.7346 24.4375 11.669C24.3944 11.6259 24.3602 11.5748 24.3368 11.5185C24.3135 11.4622 24.3015 11.4018 24.3015 11.3409C24.3015 11.2799 24.3135 11.2196 24.3368 11.1633C24.3602 11.107 24.3944 11.0558 24.4375 11.0128ZM17.0875 17.0875C17.2145 16.9598 17.3656 16.8585 17.5319 16.7894C17.6982 16.7203 17.8765 16.6847 18.0566 16.6847C18.2367 16.6847 18.415 16.7203 18.5813 16.7894C18.7476 16.8585 18.8986 16.9598 19.0256 17.0875C19.2177 17.2792 19.3485 17.5236 19.4016 17.7897C19.4547 18.0558 19.4277 18.3317 19.3239 18.5824C19.2202 18.8332 19.0444 19.0475 18.8188 19.1983C18.5932 19.3491 18.3279 19.4296 18.0566 19.4296C17.7852 19.4296 17.5199 19.3491 17.2943 19.1983C17.0687 19.0475 16.8929 18.8332 16.7892 18.5824C16.6855 18.3317 16.6584 18.0558 16.7115 17.7897C16.7646 17.5236 16.8955 17.2792 17.0875 17.0875ZM11.6713 25.0937C11.5819 25.1682 11.468 25.2066 11.3518 25.2013C11.2356 25.1961 11.1256 25.1476 11.0434 25.0653C10.9611 24.9831 10.9126 24.8731 10.9074 24.7569C10.9021 24.6407 10.9405 24.5268 11.015 24.4375C11.1025 24.3514 11.2204 24.3032 11.3431 24.3032C11.4659 24.3032 11.5837 24.3514 11.6713 24.4375C11.7144 24.4805 11.7486 24.5317 11.7719 24.588C11.7953 24.6443 11.8073 24.7046 11.8073 24.7656C11.8073 24.8265 11.7953 24.8869 11.7719 24.9432C11.7486 24.9995 11.7144 25.0506 11.6713 25.0937ZM18.0566 36.9346L16.7572 35.6353L18.0566 34.3359L19.3559 35.6353L18.0566 36.9346Z" fill="white"/>
</g>
</g>
</g>
<defs>
<clipPath id="clip0_14_967">
<rect width="48" height="48" rx="4" fill="white"/>
</clipPath>
<clipPath id="clip1_14_967">
<rect width="28" height="28" fill="white" transform="translate(10 10)"/>
</clipPath>
<clipPath id="clip2_14_967">
<rect width="28" height="28" fill="white" transform="translate(10 10)"/>
</clipPath>
</defs>
</svg>
